<?xml version="1.0" encoding="iso-8859-1"?>
<!-- Generator: Adobe Illustrator 19.0.0, SVG Export Plug-In . SVG Version: 6.00 Build 0)  -->
<svg version="1.1" id="Layer_1" xmlns="http://www.w3.org/2000/svg" xmlns:xlink="http://www.w3.org/1999/xlink" x="0px" y="0px"
	 viewBox="0 0 512.003 512.003" style="enable-background:new 0 0 512.003 512.003;" xml:space="preserve">
<circle style="fill:#FDDF6D;" cx="256.001" cy="256.001" r="256.001"/>
<path style="fill:#FCC56B;" d="M310.859,474.208c-141.385,0-256-114.615-256-256c0-75.537,32.722-143.422,84.757-190.281
	C56.738,70.303,0,156.525,0,256c0,141.385,114.615,256,256,256c65.849,0,125.883-24.87,171.243-65.718
	C392.325,464.135,352.77,474.208,310.859,474.208z"/>
<g>
	<circle style="fill:#7F184C;" cx="211.414" cy="176.754" r="31.243"/>
	<circle style="fill:#7F184C;" cx="387.321" cy="176.754" r="31.243"/>
	<path style="fill:#7F184C;" d="M376.767,335.219h-9.488v-12.96c0-5.753-4.661-10.414-10.414-10.414s-10.414,4.661-10.414,10.414
		v12.96h-21.291v-12.96c0-5.753-4.661-10.414-10.414-10.414s-10.414,4.661-10.414,10.414v12.96h-18.284v-12.96
		c0-5.753-4.661-10.414-10.414-10.414s-10.414,4.661-10.414,10.414v12.96h-20.829v-12.96c0-5.753-4.662-10.414-10.414-10.414
		c-5.753,0-10.414,4.661-10.414,10.414v12.96h-18.746v-12.96c0-5.753-4.662-10.414-10.414-10.414
		c-5.753,0-10.414,4.661-10.414,10.414v12.96h-7.043c-5.753,0-10.414,4.661-10.414,10.414s4.662,10.414,10.414,10.414h26.265v16.895
		c0,5.753,4.661,10.414,10.414,10.414s10.414-4.661,10.414-10.414v-16.895h20.179v16.895c0,5.753,4.662,10.414,10.414,10.414
		c5.753,0,10.414-4.661,10.414-10.414v-16.895h20.076v16.895c0,5.753,4.661,10.414,10.414,10.414s10.414-4.661,10.414-10.414
		v-16.895h18.978v16.895c0,5.753,4.661,10.414,10.414,10.414s10.414-4.661,10.414-10.414v-16.895h31.012
		c5.753,0,10.414-4.661,10.414-10.414S382.52,335.219,376.767,335.219z"/>
</g>
<path style="fill:#FFFFFF;" d="M457.946,366.37l-25.99,37.741l-43.649-30.059c-10.421-7.176-13.053-21.443-5.875-31.865l0,0
	c7.176-10.421,21.443-13.053,31.865-5.875L457.946,366.37z"/>
<ellipse transform="matrix(0.2723 -0.9622 0.9622 0.2723 138.9064 325.0141)" style="fill:#FCEB88;" cx="284.331" cy="70.671" rx="29.854" ry="53.46"/>
<g>
</g>
<g>
</g>
<g>
</g>
<g>
</g>
<g>
</g>
<g>
</g>
<g>
</g>
<g>
</g>
<g>
</g>
<g>
</g>
<g>
</g>
<g>
</g>
<g>
</g>
<g>
</g>
<g>
</g>
</svg>
