<?xml version="1.0" encoding="iso-8859-1"?>
<!-- Generator: Adobe Illustrator 19.0.0, SVG Export Plug-In . SVG Version: 6.00 Build 0)  -->
<svg version="1.1" id="Layer_1" xmlns="http://www.w3.org/2000/svg" xmlns:xlink="http://www.w3.org/1999/xlink" x="0px" y="0px"
	 viewBox="0 0 512.003 512.003" style="enable-background:new 0 0 512.003 512.003;" xml:space="preserve">
<circle style="fill:#FDDF6D;" cx="256.001" cy="256.001" r="256.001"/>
<path style="fill:#FCC56B;" d="M310.859,474.208c-141.385,0-256-114.615-256-256c0-75.537,32.722-143.422,84.757-190.281
	C56.738,70.303,0,156.525,0,256c0,141.385,114.615,256,256,256c65.849,0,125.883-24.87,171.243-65.718
	C392.325,464.135,352.77,474.208,310.859,474.208z"/>
<g>
	<path style="fill:#7F184C;" d="M293.248,427.894L293.248,427.894c-57.23,0-103.624-46.394-103.624-103.624l0,0h207.248l0,0
		C396.872,381.5,350.477,427.894,293.248,427.894z"/>
	<circle style="fill:#7F184C;" cx="211.414" cy="176.754" r="31.243"/>
	<circle style="fill:#7F184C;" cx="387.321" cy="176.754" r="31.243"/>
</g>
<path style="fill:#FC4C59;" d="M295.301,384.903c-28.011-13.014-59.094-11.123-84.3,2.374c18.94,24.686,48.726,40.616,82.245,40.616
	l0,0c14.772,0,28.809-3.112,41.526-8.682C325.444,404.777,312.066,392.692,295.301,384.903z"/>
<g>
	<path style="fill:#F9A880;" d="M145.987,240.152c-19.011,0-34.423,15.412-34.423,34.423h68.848
		C180.41,255.564,164.998,240.152,145.987,240.152z"/>
	<path style="fill:#F9A880;" d="M446.251,235.539c-19.011,0-34.423,15.412-34.423,34.423h68.848
		C480.676,250.951,465.264,235.539,446.251,235.539z"/>
</g>
<path style="fill:#F2F2F2;" d="M216.861,324.27v16.176c0,6.821,5.529,12.349,12.349,12.349h131.982
	c6.821,0,12.349-5.529,12.349-12.349V324.27H216.861z"/>
<ellipse transform="matrix(0.2723 -0.9622 0.9622 0.2723 156.5429 349.3541)" style="fill:#FCEB88;" cx="309.242" cy="71.181" rx="29.854" ry="53.46"/>
<g>
</g>
<g>
</g>
<g>
</g>
<g>
</g>
<g>
</g>
<g>
</g>
<g>
</g>
<g>
</g>
<g>
</g>
<g>
</g>
<g>
</g>
<g>
</g>
<g>
</g>
<g>
</g>
<g>
</g>
</svg>
